HIERARCHY
ROOT Hips
{
  OFFSET -14.727 27.329 -256.511
  CHANNELS 6 Xposition Yposition Zposition Zrotation Xrotation Yrotation
  JOINT LeftUpLeg
  {
    OFFSET 8.176 -7.771 2.231
    CHANNELS 6 Xposition Yposition Zposition Zrotation Xrotation Yrotation
    JOINT LeftLeg
    {
      OFFSET -0.000 -49.065 0.000
      CHANNELS 6 Xposition Yposition Zposition Zrotation Xrotation Yrotation
      JOINT LeftFoot
      {
        OFFSET 0.000 -43.392 -0.000
        CHANNELS 6 Xposition Yposition Zposition Zrotation Xrotation Yrotation
        End Site
        {
          OFFSET 0.000 -7.975 4.604
        }
      }
    }
  }
  JOINT RightUpLeg
  {
    OFFSET -8.153 -7.592 2.141
    CHANNELS 6 Xposition Yposition Zposition Zrotation Xrotation Yrotation
    JOINT RightLeg
    {
      OFFSET 0.000 -49.117 0.000
      CHANNELS 6 Xposition Yposition Zposition Zrotation Xrotation Yrotation
      JOINT RightFoot
      {
        OFFSET -0.000 -41.936 -0.000
        CHANNELS 6 Xposition Yposition Zposition Zrotation Xrotation Yrotation
        End Site
        {
          OFFSET 0.000 -8.385 4.841
        }
      }
    }
  }
  JOINT Spine
  {
    OFFSET 0.000 6.196 -6.196
    CHANNELS 6 Xposition Yposition Zposition Zrotation Xrotation Yrotation
    JOINT LeftShoulder
    {
      OFFSET -0.000 48.193 0.000
      CHANNELS 6 Xposition Yposition Zposition Zrotation Xrotation Yrotation
      JOINT LeftArm
      {
        OFFSET 27.279 0.000 -0.000
        CHANNELS 6 Xposition Yposition Zposition Zrotation Xrotation Yrotation
        JOINT LeftForeArm
        {
          OFFSET 26.936 0.000 0.000
          CHANNELS 6 Xposition Yposition Zposition Zrotation Xrotation Yrotation
          JOINT LeftHand
          {
            OFFSET 27.302 0.000 -0.000
            CHANNELS 6 Xposition Yposition Zposition Zrotation Xrotation Yrotation
            JOINT LeftHandThumb1
            {
            OFFSET 4.970 -0.620 3.390
            CHANNELS 6 Xposition Yposition Zposition Zrotation Xrotation Yrotation
              JOINT LeftHandThumb2
              {
              OFFSET 2.150 -0.000 0.000
              CHANNELS 6 Xposition Yposition Zposition Zrotation Xrotation Yrotation
                JOINT LeftHandThumb3
                {
                OFFSET 2.200 -0.000 0.000
                CHANNELS 6 Xposition Yposition Zposition Zrotation Xrotation Yrotation
                  JOINT LeftHandThumb4
                  {
                  OFFSET 1.700 -0.000 0.000
                  CHANNELS 6 Xposition Yposition Zposition Zrotation Xrotation Yrotation
                  }
                }
              }
            }
            JOINT LeftHandIndex1
            {
            OFFSET 8.730 0.680 2.070
            CHANNELS 6 Xposition Yposition Zposition Zrotation Xrotation Yrotation
              JOINT LeftHandIndex2
              {
              OFFSET 2.670 -0.000 0.000
              CHANNELS 6 Xposition Yposition Zposition Zrotation Xrotation Yrotation
                JOINT LeftHandIndex3
                {
                OFFSET 2.130 -0.000 0.000
                CHANNELS 6 Xposition Yposition Zposition Zrotation Xrotation Yrotation
                  JOINT LeftHandIndex4
                  {
                  OFFSET 1.800 -0.000 0.000
                  CHANNELS 6 Xposition Yposition Zposition Zrotation Xrotation Yrotation
                  }
                }
              }
            }
            JOINT LeftHandMiddle1
            {
            OFFSET 9.220 0.670 0.550
            CHANNELS 6 Xposition Yposition Zposition Zrotation Xrotation Yrotation
              JOINT LeftHandMiddle2
              {
              OFFSET 2.660 -0.000 0.000
              CHANNELS 6 Xposition Yposition Zposition Zrotation Xrotation Yrotation
                JOINT LeftHandMiddle3
                {
                OFFSET 2.280 -0.000 0.000
                CHANNELS 6 Xposition Yposition Zposition Zrotation Xrotation Yrotation
                  JOINT LeftHandMiddle4
                  {
                  OFFSET 1.500 -0.000 0.000
                  CHANNELS 6 Xposition Yposition Zposition Zrotation Xrotation Yrotation
                  }
                }
              }
            }
            JOINT LeftHandRing1
            {
            OFFSET 9.250 0.670 -1.130
            CHANNELS 6 Xposition Yposition Zposition Zrotation Xrotation Yrotation
              JOINT LeftHandRing2
              {
              OFFSET 2.470 -0.000 0.000
              CHANNELS 6 Xposition Yposition Zposition Zrotation Xrotation Yrotation
                JOINT LeftHandRing3
                {
                OFFSET 2.210 -0.000 0.000
                CHANNELS 6 Xposition Yposition Zposition Zrotation Xrotation Yrotation
                  JOINT LeftHandRing4
                  {
                  OFFSET 1.800 -0.000 0.000
                  CHANNELS 6 Xposition Yposition Zposition Zrotation Xrotation Yrotation
                  }
                }
              }
            }
            JOINT LeftHandPinky1
            {
            OFFSET 9.350 0.660 -2.720
            CHANNELS 6 Xposition Yposition Zposition Zrotation Xrotation Yrotation
              JOINT LeftHandPinky2
              {
              OFFSET 1.630 -0.000 0.000
              CHANNELS 6 Xposition Yposition Zposition Zrotation Xrotation Yrotation
                JOINT LeftHandPinky3
                {
                OFFSET 1.710 -0.000 0.000
                CHANNELS 6 Xposition Yposition Zposition Zrotation Xrotation Yrotation
                  JOINT LeftHandPinky4
                  {
                  OFFSET 1.800 -0.000 0.000
                  CHANNELS 6 Xposition Yposition Zposition Zrotation Xrotation Yrotation
                  }
                }
              }
            }
          }
        }
      }
    }
    JOINT RightShoulder
    {
      OFFSET -0.000 48.193 0.000
      CHANNELS 6 Xposition Yposition Zposition Zrotation Xrotation Yrotation
      JOINT RightArm
      {
        OFFSET -26.336 0.000 -0.000
        CHANNELS 6 Xposition Yposition Zposition Zrotation Xrotation Yrotation
        JOINT RightForeArm
        {
          OFFSET -27.118 0.000 0.000
          CHANNELS 6 Xposition Yposition Zposition Zrotation Xrotation Yrotation
          JOINT RightHand
          {
            OFFSET -26.049 0.000 -0.000
            CHANNELS 6 Xposition Yposition Zposition Zrotation Xrotation Yrotation
            JOINT RightHandThumb1
            {
            OFFSET -4.970 -0.620 3.390
            CHANNELS 6 Xposition Yposition Zposition Zrotation Xrotation Yrotation
              JOINT RightHandThumb2
              {
              OFFSET -2.150 0.000 0.000
              CHANNELS 6 Xposition Yposition Zposition Zrotation Xrotation Yrotation
                JOINT RightHandThumb3
                {
                OFFSET -2.200 0.000 0.000
                CHANNELS 6 Xposition Yposition Zposition Zrotation Xrotation Yrotation
                  JOINT RightHandThumb4
                  {
                  OFFSET -1.700 0.000 0.000
                  CHANNELS 6 Xposition Yposition Zposition Zrotation Xrotation Yrotation
                  }
                }
              }
            }
            JOINT RightHandIndex1
            {
            OFFSET -8.730 0.680 2.070
            CHANNELS 6 Xposition Yposition Zposition Zrotation Xrotation Yrotation
              JOINT RightHandIndex2
              {
              OFFSET -2.670 0.000 0.000
              CHANNELS 6 Xposition Yposition Zposition Zrotation Xrotation Yrotation
                JOINT RightHandIndex3
                {
                OFFSET -2.130 0.000 0.000
                CHANNELS 6 Xposition Yposition Zposition Zrotation Xrotation Yrotation
                  JOINT RightHandIndex4
                  {
                  OFFSET -1.800 0.000 0.000
                  CHANNELS 6 Xposition Yposition Zposition Zrotation Xrotation Yrotation
                  }
                }
              }
            }
            JOINT RightHandMiddle1
            {
            OFFSET -9.220 0.670 0.550
            CHANNELS 6 Xposition Yposition Zposition Zrotation Xrotation Yrotation
              JOINT RightHandMiddle2
              {
              OFFSET -2.660 0.000 0.000
              CHANNELS 6 Xposition Yposition Zposition Zrotation Xrotation Yrotation
                JOINT RightHandMiddle3
                {
                OFFSET -2.280 0.000 0.000
                CHANNELS 6 Xposition Yposition Zposition Zrotation Xrotation Yrotation
                  JOINT RightHandMiddle4
                  {
                  OFFSET -1.500 0.000 0.000
                  CHANNELS 6 Xposition Yposition Zposition Zrotation Xrotation Yrotation
                  }
                }
              }
            }
            JOINT RightHandRing1
            {
            OFFSET -9.250 0.670 -1.130
            CHANNELS 6 Xposition Yposition Zposition Zrotation Xrotation Yrotation
              JOINT RightHandRing2
              {
              OFFSET -2.470 0.000 0.000
              CHANNELS 6 Xposition Yposition Zposition Zrotation Xrotation Yrotation
                JOINT RightHandRing3
                {
                OFFSET -2.210 0.000 0.000
                CHANNELS 6 Xposition Yposition Zposition Zrotation Xrotation Yrotation
                  JOINT RightHandRing4
                  {
                  OFFSET -1.800 0.000 0.000
                  CHANNELS 6 Xposition Yposition Zposition Zrotation Xrotation Yrotation
                  }
                }
              }
            }
            JOINT RightHandPinky1
            {
            OFFSET -9.350 0.660 -2.720
            CHANNELS 6 Xposition Yposition Zposition Zrotation Xrotation Yrotation
              JOINT RightHandPinky2
              {
              OFFSET -1.630 0.000 0.000
              CHANNELS 6 Xposition Yposition Zposition Zrotation Xrotation Yrotation
                JOINT RightHandPinky3
                {
                OFFSET -1.710 0.000 0.000
                CHANNELS 6 Xposition Yposition Zposition Zrotation Xrotation Yrotation
                  JOINT RightHandPinky4
                  {
                  OFFSET -1.800 0.000 0.000
                  CHANNELS 6 Xposition Yposition Zposition Zrotation Xrotation Yrotation
                  }
                }
              }
            }
          }
        }
      }
    }
    JOINT Neck
    {
      OFFSET -0.000 48.193 0.000
      CHANNELS 6 Xposition Yposition Zposition Zrotation Xrotation Yrotation
      JOINT Head
      {
        OFFSET -0.000 9.251 -0.000
        CHANNELS 6 Xposition Yposition Zposition Zrotation Xrotation Yrotation
        End Site
        {
          OFFSET -0.000 0.037 -0.000
        }
      }
    }
  }
}
MOTION
Frames:	6
Frame Time:	0.0333333
12.0571 25.8822 -265.157 3.06096 15.575 -2.33642 8.13827 -7.63333 3.00319 0.0448447 -7.53676 -2.91926 5.58794e-07 -52.7632 2.38419e-05 -5.0998 19.4891 -4.52832e-07 -4.47035e-06 -40.8858 -7.15256e-05 20.6122 -43.4207 22.1805 -8.02031 -7.34155 1.78161 0.253934 -30.9827 -3.04766 -1.49012e-06 -50.2267 -2.38419e-05 1.38867 0.77347 -0.0187489 -1.49012e-06 -39.3899 -2.38419e-05 0.0801157 -4.70045 -0.426997 -2.42144e-06 5.82575 -5.82566 0.276313 -10.2615 -0.263132 1.86265e-07 48.1931 -2.38419e-05 -48.9367 9.39151e-06 -3.46347 27.4375 -2.98023e-06 7.15256e-05 20.7129 -55.1043 -20.6837 29.0148 4.76837e-05 -1.19209e-05 -4.01465e-06 1.02453e-05 -47.2041 28.0248 -2.38419e-05 -5.96046e-06 1.13044 -0.00313648 -0.0443857 0.0062 0.0497 0.0339 0 0 0 0 0.0215 0 0 0 0 0 0.022 0 0 0 0 0 0.017 0 0 0 0 -0.0068 0.0873 0.0207 0 0 0 0 0.0267 0 0 0 0 0 0.0213 0 0 0 0 0 0.018 0 0 0 0 -0.0067 0.0922 0.0055 0 0 0 0 0.0266 0 0 0 0 0 0.0228 0 0 0 0 0 0.015 0 0 0 0 -0.0067 0.0925 -0.0113 0 0 0 0 0.0247 0 0 0 0 0 0.0221 0 0 0 0 0 0.018 0 0 0 0 -0.0066 0.0935 -0.0272 0 0 0 0 0.0163 0 0 0 0 0 0.0171 0 0 0 0 0 0.018 0 0 0 0 1.86265e-07 48.1931 -2.38419e-05 49.9679 -7.8974e-06 3.5936 -26.4452 8.9407e-06 0 0.941047 29.7023 23.1661 -26.495 0 4.76837e-05 -5.01401e-07 4.70351e-06 102.17 -25.0954 0 -2.38419e-05 7.67208 -0.0109946 16.7545 -0.0062 0.0497 0.0339 28.7301 0 0 0 0.0215 0 0 -28.7301 0 0 0.022 0 0 -28.7301 0 0 0.017 0 0 0 0 0.0068 0.0873 0.0207 28.7301 0 0 0 0.0267 0 51.0758 0 0 0 0.0213 0 57.4603 0 0 0 0.018 0 0 0 0 0.0067 0.0922 0.0055 28.7301 0 0 0 0.0266 0 51.0758 0 0 0 0.0228 0 57.4603 0 0 0 0.015 0 0 0 0 0.0067 0.0925 -0.0113 28.7301 0 0 0 0.0247 0 51.0758 0 0 0 0.0221 0 57.4603 0 0 0 0.018 0 0 0 0 0.0066 0.0935 -0.0272 28.7301 0 0 0 0.0163 0 51.0758 0 0 0 0.0171 0 57.4603 0 0 0 0.018 0 0 0 0 1.86265e-07 48.1931 -2.38419e-05 -1.09356 2.80184 0.0534621 -5.21541e-06 8.56104 -2.38419e-05 1.03253e-05 -8.53774e-06 -4.26887e-07 
11.8076 26.2253 -267.062 3.2442 17.5722 -2.54497 8.11062 -7.5621 3.08778 0.209576 -10.509 -1.9091 -2.51457e-06 -52.1567 -7.15256e-05 -5.31501 20.8449 9.13569e-07 1.49012e-06 -41.7937 0 21.2719 -45.2612 23.1455 -8.01093 -7.28107 2.09744 -0.870521 -32.9541 -2.88056 2.98023e-06 -49.986 4.76837e-05 0.579517 3.13016 -0.0316467 -1.49012e-06 -39.5619 -9.53674e-05 0.449177 -5.5436 -0.114993 -2.23517e-06 5.7639 -5.76384 0.244932 -12.1976 -0.190792 -5.02914e-06 48.1932 -2.38419e-05 -49.0287 1.32335e-05 -3.44796 27.4545 2.98023e-06 -2.38419e-05 21.7983 -53.7043 -19.6425 28.9309 -2.38419e-05 -1.19209e-05 -4.19902e-06 -8.53774e-06 -47.2238 27.9971 -4.76837e-05 -5.96046e-06 2.22301 -0.00209095 -0.135962 0.0062 0.0497 0.0339 0 0 0 0 0.0215 0 0 0 0 0 0.022 0 0 0 0 0 0.017 0 0 0 0 -0.0068 0.0873 0.0207 0 0 0 0 0.0267 0 0 0 0 0 0.0213 0 0 0 0 0 0.018 0 0 0 0 -0.0067 0.0922 0.0055 0 0 0 0 0.0266 0 0 0 0 0 0.0228 0 0 0 0 0 0.015 0 0 0 0 -0.0067 0.0925 -0.0113 0 0 0 0 0.0247 0 0 0 0 0 0.0221 0 0 0 0 0 0.018 0 0 0 0 -0.0066 0.0935 -0.0272 0 0 0 0 0.0163 0 0 0 0 0 0.0171 0 0 0 0 0 0.018 0 0 0 0 -5.02914e-06 48.1932 -2.38419e-05 50.0492 -4.16215e-06 3.56522 -26.5526 8.9407e-06 2.38419e-05 1.00076 29.9184 23.5094 -26.4818 2.38419e-05 2.38419e-05 1.31879e-05 4.56721e-06 101.812 -24.7484 1.19209e-05 0 8.41131 0.00636095 17.02 -0.0062 0.0497 0.0339 33.1549 0 0 0 0.0215 0 0 -33.1549 0 0 0.022 0 0 -33.1549 0 0 0.017 0 0 0 0 0.0068 0.0873 0.0207 33.1549 0 0 0 0.0267 0 58.942 0 0 0 0.0213 0 66.3098 0 0 0 0.018 0 0 0 0 0.0067 0.0922 0.0055 33.1549 0 0 0 0.0266 0 58.942 0 0 0 0.0228 0 66.3098 0 0 0 0.015 0 0 0 0 0.0067 0.0925 -0.0113 33.1549 0 0 0 0.0247 0 58.942 0 0 0 0.0221 0 66.3098 0 0 0 0.018 0 0 0 0 0.0066 0.0935 -0.0272 33.1549 0 0 0 0.0163 0 58.942 0 0 0 0.0171 0 66.3098 0 0 0 0.018 0 0 0 0 -5.02914e-06 48.1932 -2.38419e-05 -1.0663 3.85338 0.0716684 -2.32831e-08 8.47819 0 9.68499e-06 -1.19528e-05 4.26887e-07 
11.4042 26.6339 -268.835 3.45039 19.4089 -2.88938 8.12034 -7.51188 3.21918 0.496471 -13.361 -1.04766 3.91155e-06 -51.6276 2.38419e-05 -5.58 21.9822 1.84142e-06 -3.72529e-06 -42.6157 9.53674e-05 21.6745 -47.0106 23.8187 -8.02776 -7.19802 2.4152 -2.17003 -34.7508 -2.9435 1.49012e-06 -49.6051 9.53674e-05 -0.174169 6.03984 0.0183251 -1.49012e-06 -39.7761 -2.38419e-05 0.0550866 -6.12258 -0.324824 1.44355e-06 5.70674 -5.70669 0.189002 -14.1148 -0.112918 -2.70084e-06 48.1932 2.38419e-05 -49.0319 1.15259e-05 -3.43358 27.5299 -5.96046e-06 0 23.0326 -52.399 -18.2905 28.8489 4.76837e-05 -1.19209e-05 -9.04039e-06 1.02453e-05 -47.3269 28.0302 0 4.17233e-05 3.13579 -0.00077291 -0.275768 0.0062 0.0497 0.0339 0 0 0 0 0.0215 0 0 0 0 0 0.022 0 0 0 0 0 0.017 0 0 0 0 -0.0068 0.0873 0.0207 0 0 0 0 0.0267 0 0 0 0 0 0.0213 0 0 0 0 0 0.018 0 0 0 0 -0.0067 0.0922 0.0055 0 0 0 0 0.0266 0 0 0 0 0 0.0228 0 0 0 0 0 0.015 0 0 0 0 -0.0067 0.0925 -0.0113 0 0 0 0 0.0247 0 0 0 0 0 0.0221 0 0 0 0 0 0.018 0 0 0 0 -0.0066 0.0935 -0.0272 0 0 0 0 0.0163 0 0 0 0 0 0.0171 0 0 0 0 0 0.018 0 0 0 0 -2.70084e-06 48.1932 2.38419e-05 50.2397 -5.22936e-06 3.54229 -26.6859 -5.96046e-06 -2.38419e-05 1.29317 30.1813 23.2133 -26.4053 -1.19209e-05 -2.38419e-05 8.04298e-05 1.52808e-05 101.453 -24.8357 2.38419e-05 2.38419e-05 9.332 0.0277914 17.3562 -0.0062 0.0497 0.0339 36.6183 0 0 0 0.0215 0 0 -36.6183 0 0 0.022 0 0 -36.6183 0 0 0.017 0 0 0 0 0.0068 0.0873 0.0207 36.6183 0 0 0 0.0267 0 65.0992 0 0 0 0.0213 0 73.2366 0 0 0 0.018 0 0 0 0 0.0067 0.0922 0.0055 36.6183 0 0 0 0.0266 0 65.0992 0 0 0 0.0228 0 73.2366 0 0 0 0.015 0 0 0 0 0.0067 0.0925 -0.0113 36.6183 0 0 0 0.0247 0 65.0992 0 0 0 0.0221 0 73.2366 0 0 0 0.018 0 0 0 0 0.0066 0.0935 -0.0272 36.6183 0 0 0 0.0163 0 65.0992 0 0 0 0.0171 0 73.2366 0 0 0 0.018 0 0 0 0 -2.70084e-06 48.1932 2.38419e-05 -0.58215 4.07601 0.041381 -7.45058e-07 8.37227 -2.38419e-05 1.00318e-05 -1.10991e-05 2.13443e-07 
10.7196 27.1734 -270.887 3.92614 21.4721 -3.91485 8.1344 -7.47964 3.33099 0.966868 -16.5897 0.294862 6.33299e-06 -51.0656 -2.38419e-05 -5.90869 22.7903 -1.15759e-06 -6.70552e-06 -43.2252 -2.38419e-05 21.5907 -48.5548 24.0029 -8.06159 -7.061 2.83253 -4.11661 -36.7094 -2.98873 4.47035e-06 -49.1878 0 -1.83235 10.5259 0.334845 1.49012e-06 -40.2655 0 -0.417698 -6.6629 -0.577857 -1.86265e-06 5.64913 -5.64911 0.0977531 -16.4632 -0.157275 2.23517e-06 48.1931 0 -49.0155 1.28066e-05 -3.15796 27.7135 8.9407e-06 0 25.2519 -51.2275 -15.7826 28.7836 0 1.19209e-05 -1.32328e-05 -5.12264e-06 -47.6754 28.1142 0 0 4.15865 0.000256184 -0.419236 0.0062 0.0497 0.0339 0 0 0 0 0.0215 0 0 0 0 0 0.022 0 0 0 0 0 0.017 0 0 0 0 -0.0068 0.0873 0.0207 0 0 0 0 0.0267 0 0 0 0 0 0.0213 0 0 0 0 0 0.018 0 0 0 0 -0.0067 0.0922 0.0055 0 0 0 0 0.0266 0 0 0 0 0 0.0228 0 0 0 0 0 0.015 0 0 0 0 -0.0067 0.0925 -0.0113 0 0 0 0 0.0247 0 0 0 0 0 0.0221 0 0 0 0 0 0.018 0 0 0 0 -0.0066 0.0935 -0.0272 0 0 0 0 0.0163 0 0 0 0 0 0.0171 0 0 0 0 0 0.018 0 0 0 0 2.23517e-06 48.1931 0 50.3156 -4.85584e-06 3.26086 -26.8398 8.9407e-06 0 0.625625 31.9783 25.2185 -26.4645 -1.19209e-05 -2.38419e-05 4.00654e-05 9.48994e-06 101.023 -24.3382 -4.76837e-05 -1.19209e-05 11.1011 0.0703018 17.8053 -0.0062 0.0497 0.0339 39.3092 0 0 0 0.0215 0 0 -39.3092 0 0 0.022 0 0 -39.3092 0 0 0.017 0 0 0 0 0.0068 0.0873 0.0207 39.3092 0 0 0 0.0267 0 69.883 0 0 0 0.0213 0 78.6184 0 0 0 0.018 0 0 0 0 0.0067 0.0922 0.0055 39.3092 0 0 0 0.0266 0 69.883 0 0 0 0.0228 0 78.6184 0 0 0 0.015 0 0 0 0 0.0067 0.0925 -0.0113 39.3092 0 0 0 0.0247 0 69.883 0 0 0 0.0221 0 78.6184 0 0 0 0.018 0 0 0 0 0.0066 0.0935 -0.0272 39.3092 0 0 0 0.0163 0 69.883 0 0 0 0.0171 0 78.6184 0 0 0 0.018 0 0 0 0 2.23517e-06 48.1931 0 -0.38849 5.25165 0.0355617 -3.72529e-06 8.20105 2.38419e-05 1.00852e-05 -8.53774e-06 0 
9.70922 27.6135 -272.892 3.96405 23.2577 -4.10494 8.15748 -7.36526 3.54276 1.9063 -19.5731 0.637196 -2.98023e-06 -50.5165 0 -5.8405 22.0512 9.21157e-07 3.72529e-06 -42.8472 -7.15256e-05 20.228 -47.9872 22.6127 -8.08412 -6.9689 3.12846 -7.61051 -37.546 -2.89536 1.49012e-06 -49.0715 7.15256e-05 -3.40526 15.4849 1.77187e-06 -7.45058e-06 -40.759 0 -1.97703 -6.46575 -1.44747 -7.45058e-07 5.59103 -5.59103 0.151726 -18.8643 -0.0274589 2.23517e-06 48.1931 2.38419e-05 -49.1338 1.32335e-05 -3.01706 27.735 -1.49012e-05 -4.76837e-05 26.5808 -49.8449 -14.7536 28.8661 -2.38419e-05 2.38419e-05 9.53525e-06 1.70755e-06 -47.9215 28.1806 0 2.98023e-05 4.83296 0.00515837 -0.0676019 0.0062 0.0497 0.0339 0 0 0 0 0.0215 0 0 0 0 0 0.022 0 0 0 0 0 0.017 0 0 0 0 -0.0068 0.0873 0.0207 0 0 0 0 0.0267 0 0 0 0 0 0.0213 0 0 0 0 0 0.018 0 0 0 0 -0.0067 0.0922 0.0055 0 0 0 0 0.0266 0 0 0 0 0 0.0228 0 0 0 0 0 0.015 0 0 0 0 -0.0067 0.0925 -0.0113 0 0 0 0 0.0247 0 0 0 0 0 0.0221 0 0 0 0 0 0.018 0 0 0 0 -0.0066 0.0935 -0.0272 0 0 0 0 0.0163 0 0 0 0 0 0.0171 0 0 0 0 0 0.018 0 0 0 0 2.23517e-06 48.1931 2.38419e-05 50.5409 -5.42947e-06 3.10737 -26.9296 -5.96046e-06 0 1.38117 31.8377 24.0438 -26.4617 2.38419e-05 2.38419e-05 -1.71428e-05 -1.65661e-06 101.039 -24.2639 2.38419e-05 0 13.5929 0.138367 18.245 -0.0062 0.0497 0.0339 18.9975 0 0 0 0.0215 0 0 -18.9975 0 0 0.022 0 0 -18.9975 0 0 0.017 0 0 0 0 0.0068 0.0873 0.0207 18.9975 0 0 0 0.0267 0 33.7734 0 0 0 0.0213 0 37.9951 0 0 0 0.018 0 0 0 0 0.0067 0.0922 0.0055 18.9975 0 0 0 0.0266 0 33.7734 0 0 0 0.0228 0 37.9951 0 0 0 0.015 0 0 0 0 0.0067 0.0925 -0.0113 18.9975 0 0 0 0.0247 0 33.7734 0 0 0 0.0221 0 37.9951 0 0 0 0.018 0 0 0 0 0.0066 0.0935 -0.0272 18.9975 0 0 0 0.0163 0 33.7734 0 0 0 0.0171 0 37.9951 0 0 0 0.018 0 0 0 0 2.23517e-06 48.1931 2.38419e-05 0.173984 8.21743 -0.0248688 -3.72529e-06 8.01198 4.76837e-05 9.8184e-06 -1.10991e-05 2.13443e-06 
9.70922 27.6135 -272.892 3.96405 23.2577 -4.10494 8.15748 -7.36526 3.54276 1.9063 -19.5731 0.637196 -2.98023e-06 -50.5165 0 -5.8405 22.0512 9.21157e-07 3.72529e-06 -42.8472 -7.15256e-05 20.228 -47.9872 22.6127 -8.08412 -6.9689 3.12846 -7.61051 -37.546 -2.89536 1.49012e-06 -49.0715 7.15256e-05 -3.40526 15.4849 1.77187e-06 -7.45058e-06 -40.759 0 -1.97703 -6.46575 -1.44747 -7.45058e-07 5.59103 -5.59103 0.151726 -18.8643 -0.0274589 2.23517e-06 48.1931 2.38419e-05 -49.1338 1.32335e-05 -3.01706 27.735 -1.49012e-05 -4.76837e-05 26.5808 -49.8449 -14.7536 28.8661 -2.38419e-05 2.38419e-05 9.53525e-06 1.70755e-06 -47.9215 28.1806 0 2.98023e-05 4.83296 0.00515837 -0.0676019 0.0062 0.0497 0.0339 0 0 0 0 0.0215 0 0 0 0 0 0.022 0 0 0 0 0 0.017 0 0 0 0 -0.0068 0.0873 0.0207 0 0 0 0 0.0267 0 0 0 0 0 0.0213 0 0 0 0 0 0.018 0 0 0 0 -0.0067 0.0922 0.0055 0 0 0 0 0.0266 0 0 0 0 0 0.0228 0 0 0 0 0 0.015 0 0 0 0 -0.0067 0.0925 -0.0113 0 0 0 0 0.0247 0 0 0 0 0 0.0221 0 0 0 0 0 0.018 0 0 0 0 -0.0066 0.0935 -0.0272 0 0 0 0 0.0163 0 0 0 0 0 0.0171 0 0 0 0 0 0.018 0 0 0 0 2.23517e-06 48.1931 2.38419e-05 50.5409 -5.42947e-06 3.10737 -26.9296 -5.96046e-06 0 1.38117 31.8377 24.0438 -26.4617 2.38419e-05 2.38419e-05 -1.71428e-05 -1.65661e-06 101.039 -24.2639 2.38419e-05 0 13.5929 0.138367 18.245 -0.0062 0.0497 0.0339 18.9975 0 0 0 0.0215 0 0 -18.9975 0 0 0.022 0 0 -18.9975 0 0 0.017 0 0 0 0 0.0068 0.0873 0.0207 18.9975 0 0 0 0.0267 0 33.7734 0 0 0 0.0213 0 37.9951 0 0 0 0.018 0 0 0 0 0.0067 0.0922 0.0055 18.9975 0 0 0 0.0266 0 33.7734 0 0 0 0.0228 0 37.9951 0 0 0 0.015 0 0 0 0 0.0067 0.0925 -0.0113 18.9975 0 0 0 0.0247 0 33.7734 0 0 0 0.0221 0 37.9951 0 0 0 0.018 0 0 0 0 0.0066 0.0935 -0.0272 18.9975 0 0 0 0.0163 0 33.7734 0 0 0 0.0171 0 37.9951 0 0 0 0.018 0 0 0 0 2.23517e-06 48.1931 2.38419e-05 0.173984 8.21743 -0.0248688 -3.72529e-06 8.01198 4.76837e-05 9.8184e-06 -1.10991e-05 2.13443e-06 
